<?xml version="1.0" encoding="UTF-8"?>
<!DOCTYPE svg PUBLIC "-//W3C//DTD SVG 1.1//EN" "http://www.w3.org/Graphics/SVG/1.1/DTD/svg11.dtd">
<!-- Creator: CorelDRAW 2020 (64-Bit) -->
<svg xmlns="http://www.w3.org/2000/svg" xml:space="preserve" width="550px" height="450px" version="1.1" shape-rendering="geometricPrecision" text-rendering="geometricPrecision" image-rendering="optimizeQuality" fill-rule="evenodd" clip-rule="evenodd"
viewBox="0 0 550 450"
 xmlns:xlink="http://www.w3.org/1999/xlink"
 xmlns:xodm="http://www.corel.com/coreldraw/odm/2003">
 <g id="Layer_x0020_1">
  <metadata id="CorelCorpID_0Corel-Layer"/>
  <path fill="#FEFEFE" d="M245.71 324.54c-5.2,-0.29 -10.47,-0.96 -15.63,-1.19 -5.09,-0.22 -8.73,-1.64 -9.5,-6.47 -0.76,-4.78 -0.19,-68.32 -0.15,-80.89 0.05,-18 -6.96,-35.38 -2.55,-59.46 0.86,-4.73 2.32,-8.52 2.8,-13.56 0.97,-10.18 -5.92,-19.89 -13.18,-17.75 -1.74,5.07 -5.31,12.24 -7.68,17.62 -10.05,22.79 -15.21,33.92 -16.25,58.96 -0.63,15.4 1.28,32.56 2.54,47.82 4.08,49.51 -26.57,49.33 1.95,65.09l35.43 20.78c27.3,16.39 26.93,-9.59 53.22,-29.62l-31 -1.33zm-154.24 -118.17l-65.11 65.11c-1.29,1.29 -1.73,3.24 -1.02,4.94 0.72,1.73 2.35,2.86 4.24,2.86l54.96 0.01 0.07 12.63c0.52,81.61 66.8,147.54 148.44,147.5 22.17,-0.01 44,-4.86 64.01,-14.42 5.15,-2.46 7.28,-8.61 4.84,-13.75 -2.43,-5.11 -8.63,-7.25 -13.72,-4.82 -17.27,8.24 -36,12.44 -55.13,12.43 -70.17,-0.04 -127.2,-56.52 -127.82,-126.7l-0.12 -12.81 54.68 -0.07c1.89,0 3.53,-1.12 4.25,-2.86 0.71,-1.7 0.27,-3.65 -1.02,-4.94l-65.11 -65.11c-1.8,-1.81 -4.63,-1.8 -6.44,0zm225.48 -175.13c70.17,0.04 127.2,56.52 127.82,126.7l0.12 12.84 -54.71 -0.07c-1.88,0 -3.51,1.14 -4.23,2.87 -0.7,1.7 -0.27,3.64 1.02,4.94l65.12 65.11c1.8,1.8 4.63,1.8 6.44,0l65.11 -65.11c1.29,-1.3 1.73,-3.24 1.02,-4.94 -0.72,-1.73 -2.35,-2.87 -4.24,-2.87l-54.96 0.01 -0.08 -12.64c-0.51,-81.61 -66.79,-147.54 -148.43,-147.5 -22.21,0.01 -43.98,4.93 -64,14.52 -5.15,2.46 -7.3,8.6 -4.85,13.75 2.43,5.11 8.63,7.25 13.72,4.82 17.27,-8.24 36,-12.44 55.13,-12.43zm32.93 94.92l0.04 31.02c2.44,-1.41 17.5,-16.12 18.59,-19.21 4.08,-11.64 -9.38,-20.38 -18.63,-11.81zm-8.5 83.54c-3.86,5.98 -21.97,15.57 -11.45,27.21 2.82,3.13 6.26,3.82 11.41,3.06 -6.98,5.61 -23.33,22.02 -8.93,29.2 11.29,5.62 21.59,-9.96 29.14,-17.77 2.17,-3.83 2.06,-9.67 -0.66,-12.84 -3.98,-4 -6.18,-4.97 -12.13,-3.91 3.35,-3.97 11.67,-10.21 13.62,-15.52 3.29,-8.95 -4.41,-16.68 -13.81,-14.61l12.06 -12.34c7.97,-8.83 -3.59,-24.83 -16.22,-15.69 -2.04,1.46 -14.98,14.53 -16.05,16.59 -5.01,9.55 2.14,18.79 13.02,16.62zm-60.45 111.33c20.46,0 36.76,-0.55 57.29,-2.56 9.28,-0.91 6.36,-14.75 6.65,-18.36l-0.05 -25.02c-5.11,3.83 -4.35,3.72 -4.31,8.18 0.04,4.39 0.05,8.84 -0.01,13.23l-110.65 -0.02c-0.44,-24.84 -0.04,-52.52 -0.04,-77.83l0.01 -113.3 110.54 0.01 0.16 68.43c2.86,-0.9 4.35,-3.06 4.35,-6.12l0 -65.16c-0.01,-6.28 -2.89,-6.71 -8.44,-7.05 -17.81,-1.1 -26.11,-2.7 -46.56,-2.7 -19.03,0 -30.9,0.65 -49.99,2.05 -6.42,0.48 -14.07,-0.38 -14.47,6.68l-0.02 211.17c0.18,3.32 1.59,5.14 4.87,5.66 8.37,1.33 42.18,2.71 50.67,2.71z"/>
 </g>
</svg>
